<svg width="34" height="34" viewBox="0 0 34 34" fill="none" xmlns="http://www.w3.org/2000/svg">
<g clip-path="url(#clip0_216_1862)">
<path fill-rule="evenodd" clip-rule="evenodd" d="M17.4518 31.5717C17.8606 31.9064 18.0641 32.0884 18.2695 32.0962C18.4729 32.0883 18.6783 31.9063 19.0871 31.5717L29.8669 20.5335C33.0552 17.1222 33.0552 11.5386 29.8669 8.12536C26.97 5.02525 22.2129 5.71421 19.1947 8.6831L18.6274 9.24092C18.2988 9.56385 18.2362 9.56385 17.8997 9.23308L17.3423 8.6831C14.3299 5.71222 9.56695 5.02525 6.67004 8.12536C3.48168 11.5386 3.48168 17.1222 6.67004 20.5335L7.96297 21.8585L17.4518 31.5717Z" fill="#FD8087"/>
<path fill-rule="evenodd" clip-rule="evenodd" d="M20.5228 7.59702C22.074 9.84773 22.9738 12.5211 22.9738 15.3883C22.9738 15.7014 22.962 16.0107 22.9405 16.316C22.7684 18.8622 21.8842 21.2304 20.472 23.2521C19.85 24.1426 19.1262 24.9665 18.3125 25.7103C17.4441 26.5049 16.4758 27.2055 15.4254 27.7946C15.0655 27.9962 14.6958 28.186 14.3163 28.3622L17.4519 31.5719C17.8607 31.9066 18.0642 32.0886 18.2696 32.0963C18.473 32.0885 18.6783 31.9065 19.0872 31.5719L22.3851 28.1939L29.8669 20.5336C32.3863 17.8386 32.9144 13.7854 31.4533 10.521C31.064 9.65396 30.5359 8.84174 29.8669 8.12542C29.4267 7.65573 28.9436 7.2721 28.4311 6.97075C26.7607 5.99026 24.7713 5.8787 22.8936 6.45404C22.07 6.70652 21.2661 7.09406 20.5228 7.59702Z" fill="#FE636E"/>
<path d="M21.4481 19.3384C21.445 19.3384 21.442 19.3383 21.439 19.3383C21.255 19.3351 21.0868 19.2334 20.9983 19.0721L18.3461 14.2366L16.3715 17.6886C16.2819 17.845 16.1171 17.943 15.9369 17.9468C15.7554 17.9501 15.5878 17.8595 15.4919 17.707L14.2653 15.7569L13.3397 17.2952C13.2469 17.4494 13.0801 17.5437 12.9001 17.5437H9.69418C9.41083 17.5437 9.18113 17.3139 9.18113 17.0304C9.18113 16.7469 9.41083 16.5171 9.69418 16.5171H12.6101L13.8161 14.513C13.908 14.3603 14.0724 14.2662 14.2506 14.2644C14.2523 14.2644 14.254 14.2644 14.2556 14.2644C14.4319 14.2644 14.5959 14.3549 14.6899 14.5043L15.9052 16.4365L17.9102 12.9315C18.0017 12.7717 18.1717 12.6732 18.3555 12.6732C18.3571 12.6732 18.3585 12.6732 18.3601 12.6733C18.5457 12.6749 18.716 12.7768 18.8053 12.9396L21.4663 17.7913L22.8088 15.5367C22.9013 15.3813 23.0687 15.286 23.2496 15.286H27.5255C27.8088 15.286 28.0385 15.5159 28.0385 15.7994C28.0385 16.0828 27.8088 16.3127 27.5255 16.3127H23.5412L21.8888 19.0878C21.7962 19.2433 21.6286 19.3384 21.4481 19.3384Z" fill="#F8F2F0"/>
<path fill-rule="evenodd" clip-rule="evenodd" d="M28.4311 11.4114C31.4982 11.4114 34 8.90827 34 5.83757C34 2.76881 31.4982 0.265625 28.4311 0.265625C25.3621 0.265625 22.8603 2.76881 22.8603 5.83757C22.8603 8.90827 25.3621 11.4114 28.4311 11.4114Z" fill="#F8F2F0"/>
<path fill-rule="evenodd" clip-rule="evenodd" d="M26.434 0.633582C28.392 1.49866 29.7573 3.45578 29.7573 5.73385C29.7573 5.76904 29.7573 5.8043 29.7554 5.83757C29.7436 6.48537 29.6224 7.1058 29.4072 7.67922C28.8517 9.17449 27.6702 10.3663 26.1837 10.9378C26.8702 11.2432 27.6311 11.4114 28.4312 11.4114C29.5441 11.4114 30.5828 11.0846 31.4533 10.5209C32.9868 9.52671 34 7.80054 34 5.83757C34 2.76097 31.506 0.265625 28.4311 0.265625C27.7269 0.265625 27.0541 0.394785 26.434 0.633582Z" fill="#D6DCEA"/>
<path d="M30.4576 5.32415H28.9442V3.80995C28.9442 3.52646 28.7145 3.29663 28.4311 3.29663C28.1478 3.29663 27.9181 3.52646 27.9181 3.80995V5.32421H26.4047C26.1213 5.32421 25.8916 5.55404 25.8916 5.83753C25.8916 6.12102 26.1213 6.35085 26.4047 6.35085H27.9181V7.86512C27.9181 8.1486 28.1478 8.37844 28.4311 8.37844C28.7145 8.37844 28.9442 8.1486 28.9442 7.86512V6.35079H30.4576C30.7409 6.35079 30.9706 6.12095 30.9706 5.83747C30.9706 5.55398 30.741 5.32415 30.4576 5.32415Z" fill="#FD8087"/>
<path fill-rule="evenodd" clip-rule="evenodd" d="M4.75124 23.0993L3.60892 26.8061L4.75124 30.7341L10.013 32.1666L14.2811 33.3272C16.7711 34.1023 17.8704 33.6599 20.1609 32.9241L28.5544 30.2311C30.9642 29.4581 30.6043 26.1427 27.0776 27.2758L22.385 28.1937L21.6182 28.3444C20.4798 28.5655 20.3233 28.6575 19.1751 28.4794L15.4254 27.7945L14.7446 27.6692C13.2072 27.178 13.8057 25.1191 15.1476 25.3226C16.0552 25.4381 17.2719 25.6025 18.3125 25.7101C18.334 25.712 18.3555 25.714 18.3751 25.7159C20.3839 25.9195 21.1898 24.4184 20.472 23.2519C20.2001 22.8077 19.7052 22.4104 18.9717 22.1775L16.1452 21.6589C14.3123 21.3222 13.0096 21.7411 10.1655 22.2088L8.56355 22.4731L4.75124 23.0993Z" fill="#FED1A3"/>
<path fill-rule="evenodd" clip-rule="evenodd" d="M0 22.4359V31.468C0 31.5815 0.119332 31.6735 0.264098 31.6735H4.48528C4.63197 31.6735 4.7513 31.5815 4.7513 31.468V30.7341V23.0993V22.4359C4.7513 22.3224 4.63197 22.2303 4.48528 22.2303H0.264098C0.119332 22.2304 0 22.3224 0 22.4359Z" fill="#4398D1"/>
<path fill-rule="evenodd" clip-rule="evenodd" d="M0 30.0803V31.4679C0 31.5814 0.119332 31.6735 0.264098 31.6735H4.48528C4.63197 31.6735 4.7513 31.5815 4.7513 31.4679V30.734V30.0803C4.7513 30.1919 4.63197 30.2858 4.48528 30.2858H0.264098C0.119332 30.2858 0 30.1919 0 30.0803Z" fill="#3F95D2"/>
<path fill-rule="evenodd" clip-rule="evenodd" d="M4.75124 30.0804V30.7341L10.013 32.1667L14.2811 33.3273C16.7711 34.1023 17.8704 33.66 20.1609 32.9241L28.5544 30.2311C29.9138 29.7966 30.3911 28.5519 29.9177 27.7515C29.685 28.2133 29.2292 28.6282 28.5544 28.8435L20.1609 31.5365C17.8704 32.2704 16.7711 32.7147 14.2811 31.9396L10.013 30.7791L4.75124 29.3445V30.0804Z" fill="#FFBC85"/>
<path fill-rule="evenodd" clip-rule="evenodd" d="M15.1476 23.935C14.0835 23.7745 13.4869 25.033 14.0502 25.806C14.2751 25.4713 14.6625 25.2502 15.1476 25.3226C16.0552 25.4381 17.2719 25.6024 18.3125 25.7101L18.3751 25.7159C20.29 25.9097 21.1116 24.5573 20.5639 23.4202C20.4133 23.7098 20.1609 23.9584 19.8128 24.1247C19.4411 24.3028 18.958 24.387 18.3751 24.3283L18.3125 24.3224C17.2719 24.2149 16.0552 24.0504 15.1476 23.935Z" fill="#FFBC85"/>
</g>
<defs>
<clipPath id="clip0_216_1862">
<rect width="34" height="34" fill="white"/>
</clipPath>
</defs>
</svg>
