<svg width="34" height="34" viewBox="0 0 34 34" fill="none" xmlns="http://www.w3.org/2000/svg">
<g clip-path="url(#clip0_216_1928)">
<path fill-rule="evenodd" clip-rule="evenodd" d="M25.3687 15.1582H34V18.1566C34 18.898 33.395 19.5035 32.6542 19.5035H29.5495L27.6976 20.439L25.3686 19.5035V15.1582H25.3687Z" fill="#FFE07D"/>
<path fill-rule="evenodd" clip-rule="evenodd" d="M26.7144 10.8071H32.6542C33.395 10.8071 34 11.4126 34 12.154V14.382H25.3687V12.154C25.3687 11.4126 25.9737 10.8071 26.7144 10.8071Z" fill="#FFE07D"/>
<path fill-rule="evenodd" clip-rule="evenodd" d="M25.3687 13.7104H34V15.8278H25.3687V13.7104Z" fill="#4398D1"/>
<path fill-rule="evenodd" clip-rule="evenodd" d="M32.1985 13.7104H33.3038H34V12.1539C34 11.6474 33.7168 11.2049 33.3038 10.9759C33.1099 10.8692 32.8888 10.807 32.6541 10.807H30.8526C31.5934 10.807 32.1984 11.4125 32.1984 12.1539V13.7104H32.1985Z" fill="#FFC269"/>
<path fill-rule="evenodd" clip-rule="evenodd" d="M32.1985 15.8278H33.3038H34V15.1582V14.3819V13.7104H33.3038H32.1985V14.3819V15.1582V15.8278Z" fill="#398CC4"/>
<path fill-rule="evenodd" clip-rule="evenodd" d="M32.1985 15.8278V18.1567C32.1985 18.8981 31.5934 19.5035 30.8527 19.5035H32.6542C32.8888 19.5035 33.1099 19.4434 33.3039 19.3367C33.7169 19.1057 34.0001 18.6632 34.0001 18.1567V15.8278H33.3039H32.1985Z" fill="#FFC269"/>
<path fill-rule="evenodd" clip-rule="evenodd" d="M25.3686 19.5036H29.5496V21.4269C29.5496 21.8888 29.1715 22.2652 28.7119 22.2652H15.0993C15.0993 21.0562 15.0993 20.4409 16.0242 20.4409L17.8665 20.439C19.0261 20.4371 19.7863 20.1401 20.2109 19.5035L25.3686 19.5036Z" fill="#6F6571"/>
<path fill-rule="evenodd" clip-rule="evenodd" d="M16.7412 22.2653H28.7118C29.4138 23.4879 29.9781 24.9571 29.4914 27.7673C28.6769 24.9959 20.4043 26.1021 19.5549 29.3005H10.4271C10.0819 28.5183 9.75614 27.7459 9.47106 26.9658H12.0444C17.2492 25.0017 15.5757 25.877 16.7412 22.2653Z" fill="#FFE07D"/>
<path fill-rule="evenodd" clip-rule="evenodd" d="M16.0023 14.7526C16.1807 15.6919 16.4231 16.6177 16.6946 17.4056L19.3259 18.4366L22.26 17.4056C22.1572 11.8531 20.0823 9.19039 18.3176 8.32871C17.6816 7.84441 17.03 7.66199 17.03 7.66199C17.03 7.66199 16.1729 9.03321 16.1283 9.03321C15.7986 9.81727 15.6745 10.8401 15.6958 11.9443L16.0023 14.7526Z" fill="#FFE07D"/>
<path fill-rule="evenodd" clip-rule="evenodd" d="M22.2601 17.4056H16.6946C15.4128 17.5454 13.8362 18.5216 13.8362 21.5453V24.7145L15.0993 25.4668L16.7411 24.7145V22.2652C16.7411 21.0562 16.7411 20.4409 17.6661 20.4409L19.5083 20.439C20.6679 20.4371 21.4281 20.1401 21.8528 19.5035C22.1805 19.0126 22.3066 18.3197 22.2601 17.4056Z" fill="#4398D1"/>
<path fill-rule="evenodd" clip-rule="evenodd" d="M22.2601 17.4056C22.1573 11.8531 20.0824 9.19042 18.3177 8.32874C18.0559 8.51308 17.765 8.66449 17.4451 8.77704C19.0081 9.95894 20.5749 12.6003 20.6641 17.4056H22.2601Z" fill="#FFC269"/>
<path fill-rule="evenodd" clip-rule="evenodd" d="M22.2601 17.4056H20.6642C20.7107 18.3197 20.5847 19.0126 20.257 19.5036C19.9893 19.9054 19.586 20.245 19.0333 20.4391H19.5084C20.6681 20.4372 21.4282 20.1402 21.8529 19.5036C22.1806 19.0126 22.3066 18.3197 22.2601 17.4056Z" fill="#398CC4"/>
<path fill-rule="evenodd" clip-rule="evenodd" d="M19.5549 29.3005C19.5549 26.4302 21.8296 24.1439 24.6356 24.1439C26.918 24.1439 28.8495 25.6577 29.4914 27.7673C29.6232 28.2001 29.7008 28.6601 29.7143 29.1375C29.7202 29.3238 29.5922 29.3005 29.4176 29.3005C26.1307 29.3005 22.8418 29.2986 19.5549 29.3005Z" fill="#4398D1"/>
<path fill-rule="evenodd" clip-rule="evenodd" d="M20.8328 29.3005H28.5664C28.4559 31.3849 26.7668 33.0423 24.6996 33.0423C22.6324 33.0423 20.9433 31.3849 20.8328 29.3005Z" fill="#6F6571"/>
<path fill-rule="evenodd" clip-rule="evenodd" d="M1.19451 28.4757L7.84789 30.007C7.42515 31.8449 5.5926 32.9938 3.7562 32.5707C1.91788 32.1476 0.771771 30.3136 1.19451 28.4757Z" fill="#6F6571"/>
<path fill-rule="evenodd" clip-rule="evenodd" d="M0.696203 26.6106C1.63671 25.2424 3.26951 24.4486 4.97602 24.6194C7.98568 25.256 8.96498 27.055 9.16081 29.2986C9.15696 29.6033 9.12395 29.9099 9.05801 30.2166C9.03862 30.302 8.98238 30.267 8.88927 30.2457L7.84789 30.0069L1.19452 28.4757L0.696137 28.3612L0 28.2001C0.133809 27.614 0.374266 27.0784 0.696203 26.6106Z" fill="#FFE07D"/>
<path fill-rule="evenodd" clip-rule="evenodd" d="M4.97018 24.6116L7.6579 15.3115L8.86796 14.77L10.2215 15.3115C8.44329 20.241 8.93968 23.6819 10.1401 26.9657C10.4271 27.7459 10.7529 28.5183 11.0962 29.3004H9.16273L4.97018 24.6116Z" fill="#4398D1"/>
<path fill-rule="evenodd" clip-rule="evenodd" d="M13.2932 4.8839L16.4464 4.2124C16.7663 4.24149 17.6817 5.01007 17.6817 5.49139L17.0107 8.90321C16.7315 8.98668 16.4347 9.03323 16.1284 9.03323C14.449 9.03323 13.0877 7.66891 13.0877 5.98817C13.0877 5.5981 13.1594 5.22543 13.2932 4.8839Z" fill="#FFECE4"/>
<path fill-rule="evenodd" clip-rule="evenodd" d="M12.2751 4.8839C12.2751 2.71414 13.9933 0.957764 16.1147 0.957764C18.2362 0.957764 19.9544 2.71414 19.9544 4.8839C19.9544 6.31615 19.3726 7.58929 18.3176 8.32872C17.9414 8.59462 17.5032 8.79065 17.0106 8.90321V5.49132C17.0106 5.01001 16.7663 4.91299 16.4463 4.88383H13.2932L12.2751 4.8839Z" fill="#4398D1"/>
<path fill-rule="evenodd" clip-rule="evenodd" d="M14.1058 1.53802C14.6895 1.16927 15.3779 0.957764 16.1147 0.957764C18.2362 0.957764 19.9543 2.71414 19.9543 4.8839C19.9543 6.31615 19.3726 7.58929 18.3176 8.32872C18.05 8.51699 17.7533 8.67032 17.4275 8.78288C18.2071 7.99297 18.6298 6.85962 18.6298 5.60972C18.6298 3.34294 16.8322 1.50502 14.6157 1.50502C14.4432 1.50502 14.2725 1.51471 14.1058 1.53802Z" fill="#398CC4"/>
<path fill-rule="evenodd" clip-rule="evenodd" d="M13.8362 24.7145H16.7412V26.5446C16.7412 26.9367 16.5279 26.9658 16.2137 26.9658H12.0444C11.961 25.1298 13.0721 24.7145 13.8362 24.7145Z" fill="#6F6571"/>
<path fill-rule="evenodd" clip-rule="evenodd" d="M10.1401 26.9658C8.93974 23.682 8.44329 20.2411 10.2215 15.3115H9.22475C9.2209 15.3115 9.21699 15.3115 9.21313 15.3115H8.85441C7.07618 20.2411 7.57064 23.682 8.77293 26.9658C9.05801 27.746 9.3838 28.5183 9.72898 29.3005H10.4271H11.0961C10.7529 28.5183 10.4271 27.7459 10.1401 26.9658Z" fill="#398CC4"/>
<path fill-rule="evenodd" clip-rule="evenodd" d="M9.16081 29.2986L4.97602 24.6194C4.54358 24.5767 4.115 24.5941 3.70195 24.6698L7.72384 29.1665C7.71999 29.4285 7.69476 29.6944 7.64436 29.9603L7.84796 30.0068L8.88934 30.2456C8.98244 30.2669 9.03869 30.3019 9.05808 30.2165C9.12395 29.9099 9.15689 29.6032 9.16081 29.2986Z" fill="#FFC269"/>
<path fill-rule="evenodd" clip-rule="evenodd" d="M28.7118 22.2653H16.7411V23.3191H26.5768C27.3776 23.3191 27.7577 23.6645 28.07 24.3652C28.3395 24.9726 28.3454 25.1706 28.4675 25.9042C28.9271 26.4379 29.28 27.0706 29.4914 27.7673C29.9781 24.957 29.4138 23.4879 28.7118 22.2653Z" fill="#FFC269"/>
<path fill-rule="evenodd" clip-rule="evenodd" d="M28.4674 25.9042C27.5366 24.8231 26.1656 24.1439 24.6356 24.1439C24.2516 24.1439 23.8793 24.1866 23.5206 24.2662C25.8108 24.7843 27.4126 26.8066 27.4824 29.1375C27.4862 29.2656 27.428 29.2947 27.335 29.3005H28.5664H29.4177C29.5922 29.3005 29.7202 29.3238 29.7144 29.1375C29.7009 28.6601 29.6233 28.2001 29.4914 27.7673C29.4876 27.7537 29.4836 27.7421 29.4798 27.7305C29.4798 27.7305 29.4798 27.7305 29.4798 27.7285C29.2664 27.0473 28.9193 26.4282 28.4674 25.9042Z" fill="#4398D1"/>
<path fill-rule="evenodd" clip-rule="evenodd" d="M7.64435 29.9604L1.19451 28.4757C1.12279 28.7804 1.09756 29.087 1.10918 29.3859L6.22864 30.564L6.43031 30.6105C6.24026 31.4451 5.75742 32.1379 5.11554 32.6056C6.42447 32.3747 7.53179 31.3849 7.84789 30.007L7.64435 29.9604Z" fill="#5D5360"/>
<path fill-rule="evenodd" clip-rule="evenodd" d="M27.3349 29.3005H20.8328C20.8541 29.708 20.9375 30.1001 21.0713 30.4668H25.6013H26.8326C26.7842 31.379 26.4351 32.2077 25.8844 32.8539C27.3795 32.3629 28.479 30.9675 28.5662 29.3004L27.3349 29.3005Z" fill="#5D5360"/>
<path fill-rule="evenodd" clip-rule="evenodd" d="M29.5495 21.4268V19.5035H26.9219V21.4268C26.9219 21.8887 26.5438 22.2652 26.0842 22.2652H28.7118C29.1714 22.2652 29.5495 21.8887 29.5495 21.4268Z" fill="#5D5360"/>
<path fill-rule="evenodd" clip-rule="evenodd" d="M13.1031 5.66207H15.6939C16.0139 5.69116 16.2582 5.79017 16.2582 6.27148V9.02927C16.5181 9.01764 16.7702 8.97495 17.0106 8.90309V5.49127C17.0106 5.00996 16.7663 4.91294 16.4463 4.88379H13.2932C13.1982 5.12836 13.1322 5.39034 13.1031 5.66207Z" fill="#FFDDCE"/>
<path fill-rule="evenodd" clip-rule="evenodd" d="M7.0975 12.3829L10.7257 13.5823C10.9042 13.7414 10.7025 15.3639 10.5822 15.3115H7.6579H6.36444V12.6411C6.36444 12.1151 6.6379 12.2315 7.0975 12.3829Z" fill="#FFE07D"/>
<path fill-rule="evenodd" clip-rule="evenodd" d="M12.4167 15.3115H12.1122H10.5822C9.5971 15.3115 9.56801 13.6774 10.7257 13.5823L12.4167 13.4464L12.8705 14.4071L12.4167 15.3115Z" fill="#FFECE4"/>
<path fill-rule="evenodd" clip-rule="evenodd" d="M15.6959 11.9444L16.3029 11.4223C17.8232 10.1123 19.745 12.3228 17.7127 13.6425L16.0023 14.7526L15.1413 15.3116H12.4167V13.4465L14.1096 13.3087L15.6959 11.9444Z" fill="#4398D1"/>
<path fill-rule="evenodd" clip-rule="evenodd" d="M12.4167 15.3115V14.4071H12.0541H11.8582H11.5518H10.0218C9.96366 14.4071 9.90934 14.4033 9.85701 14.3916C9.80076 14.8418 10.0548 15.3115 10.5823 15.3115H12.1123H12.4167Z" fill="#FFDDCE"/>
<path fill-rule="evenodd" clip-rule="evenodd" d="M17.7127 13.6425C18.9421 12.8429 18.7249 11.7193 18.0249 11.2457C18.0812 11.7309 17.8504 12.2879 17.1523 12.7401L15.82 13.6037L15.4438 13.8502L14.5828 14.4073H12.4167V15.3116H15.1413L16.0023 14.7527L17.7127 13.6425Z" fill="#398CC4"/>
<path fill-rule="evenodd" clip-rule="evenodd" d="M10.7257 13.5823L9.26553 13.101C8.77685 13.625 8.54024 14.6458 8.85441 15.3115H10.2215H10.5822C10.0548 15.3115 9.80077 14.8418 9.85695 14.3916C9.90735 14.0015 10.1886 13.6269 10.7257 13.5823Z" fill="#FFC269"/>
</g>
<defs>
<clipPath id="clip0_216_1928">
<rect width="34" height="34" fill="white"/>
</clipPath>
</defs>
</svg>
