<svg width="34" height="34" viewBox="0 0 34 34" fill="none" xmlns="http://www.w3.org/2000/svg">
<g clip-path="url(#clip0_216_1833)">
<path d="M21.6897 32.8276H5.27591L2.93111 14.6553H24.0345L21.6897 32.8276Z" fill="#4398D1"/>
<path d="M25.7932 12.3104H1.17247V14.6552H25.7932V12.3104Z" fill="#4398D1"/>
<path d="M2.9311 14.6552L3.23358 17H23.732L24.0345 14.6552H2.9311Z" fill="#398CC4"/>
<path d="M12.3104 12.3103H4.1035V7.03443L6.4483 4.10339H9.96557L12.3104 7.03443V12.3103Z" fill="#726891"/>
<path d="M9.96536 0H6.4481V4.10343H9.96536V0Z" fill="#E8594A"/>
<path d="M12.3106 7.03442H4.1035V12.3104H12.3106V7.03442Z" fill="#7A709C"/>
<path d="M21.5793 1.97937L20.5304 2.50293L22.9231 7.2963L23.972 6.77273L21.5793 1.97937Z" fill="#E66712"/>
<path d="M25.2072 0H22.8624V2.3448H25.2072V0Z" fill="#F77219"/>
<path d="M19.9311 4.68967H14.6552C14.6552 2.09976 16.755 0 19.3448 0H22.8621V2.3448L19.9311 4.68967Z" fill="#F77219"/>
<path d="M19.9309 4.68958H16.4137V7.03438H19.9309V4.68958Z" fill="#D4D4D4"/>
<path d="M16.4138 7.03442H19.9311L22.8621 9.96546V12.3103H14.6552V8.79306L16.4138 7.03442Z" fill="#EBEBEB"/>
<path d="M29.8966 24.6207H28.9786C28.4258 24.6207 27.8806 24.7497 27.3858 24.9965C26.3834 25.4982 25.2028 25.4982 24.2004 24.9965C23.7057 24.7497 23.1605 24.6207 22.6076 24.6207H21.6896C20.0711 24.6207 18.7586 25.9332 18.7586 27.5518V31.069C18.7586 32.6875 20.0711 34.0001 21.6896 34.0001H22.6076C23.1604 34.0001 23.7056 33.8711 24.2004 33.6243C25.2028 33.1226 26.3834 33.1226 27.3858 33.6243C27.8805 33.8711 28.4257 34.0001 28.9785 34.0001H29.8965C31.515 34.0001 32.8275 32.6875 32.8275 31.069V27.5518C32.8276 25.9332 31.5151 24.6207 29.8966 24.6207Z" fill="#F5A338"/>
<path d="M29.8966 30.4827H28.9786C28.4258 30.4827 27.8806 30.3537 27.3858 30.1069C26.3834 29.6052 25.2028 29.6052 24.2004 30.1069C23.7057 30.3537 23.1605 30.4827 22.6076 30.4827H21.6896C20.0711 30.4827 18.7586 29.1702 18.7586 27.5516C18.7586 25.9331 20.0711 24.6206 21.6896 24.6206H22.6076C23.1604 24.6206 23.7056 24.7496 24.2004 24.9963C25.2028 25.4981 26.3834 25.4981 27.3858 24.9963C27.8805 24.7496 28.4257 24.6206 28.9785 24.6206H29.8965C31.515 24.6206 32.8275 25.9331 32.8275 27.5516C32.8276 29.1702 31.5151 30.4827 29.8966 30.4827Z" fill="#F9B44D"/>
<path d="M30.4828 26.3792H29.3104V27.5516H30.4828V26.3792Z" fill="#F5A338"/>
<path d="M24.6205 26.3792H23.4481V27.5516H24.6205V26.3792Z" fill="#F5A338"/>
<path d="M22.2757 26.9656H21.1033V28.138H22.2757V26.9656Z" fill="#F5A338"/>
<path d="M28.138 26.9656H26.9656V28.138H28.138V26.9656Z" fill="#F5A338"/>
<path d="M16.4138 17V12.3103H7.03453V25.793C7.03453 26.7643 7.82177 27.5516 8.79316 27.5516H14.6552C15.6266 27.5516 16.4139 26.7644 16.4139 25.793V19.9309L18.7939 21.1209C19.4217 21.4352 20.1849 21.1807 20.4991 20.5535C20.4991 20.5529 20.4997 20.5529 20.4997 20.5523L20.5144 20.523C20.8426 19.8787 20.5859 19.0903 19.9422 18.7627C19.9399 18.7615 19.937 18.7597 19.934 18.7585L16.4138 17Z" fill="#97D3E6"/>
<path d="M19.934 18.7586L16.4138 17V12.3103H15.9695C13.8416 19.3067 10.1074 23.5825 7.05917 26.0515C7.18521 26.9127 7.92325 27.551 8.79317 27.5516H14.6552C15.6266 27.5516 16.4139 26.7644 16.4139 25.793V19.9309L18.7939 21.1209C19.4217 21.4352 20.1849 21.1807 20.4991 20.5535C20.4991 20.5529 20.4997 20.5529 20.4997 20.5523L20.5144 20.523C20.8426 19.8787 20.5859 19.0903 19.9422 18.7627C19.9393 18.7615 19.9369 18.7597 19.934 18.7586Z" fill="#8AC9DE"/>
<path d="M9.9653 21.6896H8.7929V27.5519H9.9653V21.6896Z" fill="#7DBDD1"/>
<path d="M12.3101 21.6896H11.1377V27.5519H12.3101V21.6896Z" fill="#7DBDD1"/>
<path d="M14.6549 21.6896H13.4825V27.5519H14.6549V21.6896Z" fill="#7DBDD1"/>
</g>
<defs>
<clipPath id="clip0_216_1833">
<rect width="34" height="34" fill="white"/>
</clipPath>
</defs>
</svg>
