<svg width="34" height="34" viewBox="0 0 34 34" fill="none" xmlns="http://www.w3.org/2000/svg">
<path d="M18.8519 27.4326L13.0958 29.4849L12.8776 30.2477C12.5677 31.3334 11.3903 32.2213 10.2616 32.2213V32.7344H22.1992L18.8519 27.4326Z" fill="#ADACA7"/>
<path d="M21.1224 30.2478L20.3179 27.4327L17 25.3804L13.6821 27.4327L13.0958 29.485H18.8519L19.0701 30.2478C19.38 31.3334 20.5573 32.2214 21.6861 32.2214L22.7123 32.7345L23.7384 32.2214C22.6097 32.2214 21.4323 31.3334 21.1224 30.2478Z" fill="#8F8F8B"/>
<path d="M29.8954 27.4326H31.9477C33.0765 27.4326 34 26.509 34 25.3803V21.2756L29.8954 17.171V27.4326Z" fill="#ADACA7"/>
<path d="M0 25.3803C0 26.5091 0.923541 27.4326 2.05231 27.4326H29.8954C31.0241 27.4326 31.9477 26.5091 31.9477 25.3803V13.0664L0 21.2757V25.3803Z" fill="#CBC9C2"/>
<path d="M31.9477 0.752563H29.8954L31.9477 21.2757H34V2.80488C34 1.6761 33.0765 0.752563 31.9477 0.752563Z" fill="#404242"/>
<path d="M31.9477 2.80488C31.9477 1.6761 31.0241 0.752563 29.8954 0.752563H2.05231C0.923541 0.752563 0 1.6761 0 2.80488V21.2757H31.9477V19.2234L17 11.0132L31.9477 2.80488Z" fill="#565959"/>
<path d="M31.9477 2.80454L29.8958 2.8031C29.8958 2.80344 17 11.0132 17 11.0132C17 11.0132 29.8955 19.2233 29.8954 19.2234L31.9476 19.222C31.9477 19.222 31.9475 2.80481 31.9477 2.80454Z" fill="#217CDD"/>
<path d="M29.8954 2.80448L2.05833 2.80298C2.05662 2.8038 2.05519 19.223 2.05231 19.2233C2.05231 19.2233 29.894 19.222 29.8947 19.222C29.895 19.222 29.8925 2.80476 29.8954 2.80448Z" fill="#4398D1"/>
<path d="M17 25.3803C17.5667 25.3803 18.0262 24.9209 18.0262 24.3542C18.0262 23.7874 17.5667 23.328 17 23.328C16.4333 23.328 15.9738 23.7874 15.9738 24.3542C15.9738 24.9209 16.4333 25.3803 17 25.3803Z" fill="white"/>
<path d="M27.6036 33.2475H6.39638C6.11302 33.2475 5.8833 33.0178 5.8833 32.7344C5.8833 32.451 6.11302 32.2213 6.39638 32.2213H27.6036C27.887 32.2213 28.1167 32.451 28.1167 32.7344C28.1167 33.0178 27.887 33.2475 27.6036 33.2475Z" fill="#8F8F8B"/>
</svg>
