<svg width="34" height="34" viewBox="0 0 34 34" fill="none" xmlns="http://www.w3.org/2000/svg">
<g clip-path="url(#clip0_216_2002)">
<path fill-rule="evenodd" clip-rule="evenodd" d="M29.0424 23.6554C28.562 21.6131 26.9628 20.6557 24.9566 20.3024C24.4953 20.2212 24.0152 20.1711 23.5213 20.148C23.1566 20.1364 22.8539 20.0611 22.5971 19.9395C21.1561 22.671 14.5684 22.478 13.4688 19.9395V19.9203C13.2027 20.0534 12.8862 20.1364 12.5043 20.148C12.0239 20.1711 11.557 20.2173 11.1096 20.2946C9.15913 20.6287 7.58899 21.528 7.04114 23.4294C7.88782 24.2421 14.7632 30.4405 14.8172 30.78H29.2525V27.3056C29.2525 26.935 29.4203 26.6009 29.6846 26.377L29.0424 23.6554Z" fill="#64B0D9"/>
<path d="M4.7937 20.055C4.65908 20.055 4.52471 20.0028 4.42354 19.8988C4.22406 19.6944 4.22821 19.3671 4.43288 19.1678C4.92055 18.6926 4.81601 18.4879 4.56362 17.9941C4.27491 17.4288 3.83834 16.5749 4.95842 15.5209C5.1662 15.3254 5.49356 15.3349 5.68941 15.543C5.885 15.751 5.87514 16.0781 5.6671 16.2737C5.11251 16.7956 5.22145 17.0089 5.48474 17.5235C5.7649 18.0721 6.18849 18.9009 5.15479 19.9082C5.05414 20.0062 4.92392 20.055 4.7937 20.055Z" fill="#666666"/>
<path d="M7.6567 17.283C7.52207 17.283 7.38744 17.2309 7.28627 17.1268C7.0868 16.9224 7.09095 16.5951 7.29561 16.3959C7.78328 15.9206 7.67849 15.7165 7.42557 15.2223C7.13634 14.6574 6.69899 13.8032 7.81908 12.749C8.02712 12.5534 8.35422 12.5632 8.55007 12.7713C8.74591 12.9791 8.73606 13.3062 8.52802 13.502C7.97368 14.0237 8.08289 14.2366 8.34644 14.7513C8.62711 15.2999 9.05175 16.1287 8.01752 17.1364C7.91687 17.2342 7.78665 17.283 7.6567 17.283Z" fill="#666666"/>
<path d="M31.413 26.7739C31.1274 26.7739 30.896 26.5425 30.896 26.2572V17.816C30.896 17.5307 31.1274 17.2993 31.413 17.2993C31.6986 17.2993 31.9303 17.5307 31.9303 17.816V26.2569C31.9303 26.5425 31.6986 26.7739 31.413 26.7739Z" fill="#666666"/>
<path fill-rule="evenodd" clip-rule="evenodd" d="M12.5043 20.148C12.0239 20.1711 11.557 20.2173 11.1096 20.2946V23.4294L12.157 24.3695L13.4688 23.4294V19.9203C13.2027 20.0534 12.8862 20.1364 12.5043 20.148Z" fill="#E6E6E6"/>
<path fill-rule="evenodd" clip-rule="evenodd" d="M11.0092 29.925H13.8179C14.3214 29.925 14.7419 30.2975 14.8172 30.78H26.8297L25.9093 25.4543C25.8227 24.937 25.4811 24.4989 24.9563 24.4989V20.3024C24.4953 20.2212 24.0149 20.1711 23.521 20.148C23.1566 20.1363 22.8536 20.0611 22.5971 19.9395V24.4989H15.3845C15.3998 24.6146 11.8504 29.5795 11.0092 29.925Z" fill="#E6E6E6"/>
<path fill-rule="evenodd" clip-rule="evenodd" d="M21.4687 18.7234L18.1834 17.6869L14.5663 18.704L14.5567 18.7214C14.3157 19.2329 13.9741 19.6653 13.4688 19.9201V19.9395C14.5684 22.4777 21.1561 22.671 22.5971 19.9395C22.0687 19.6884 21.733 19.2368 21.4687 18.7234Z" fill="#FCC368"/>
<path fill-rule="evenodd" clip-rule="evenodd" d="M21.9626 8.83614C19.3468 8.44833 16.7154 8.44055 14.0688 8.83614C13.3049 8.95001 12.5409 9.09865 11.7752 9.28023V14.3126C11.7752 16.0944 13.0732 17.6676 14.5666 18.7042C15.7858 19.5535 17.1359 20.0419 18.006 19.9955C19.1055 19.9338 20.3673 19.4744 21.4687 18.7234C23.0352 17.6542 24.2775 15.994 24.2775 14.0444V9.27841C23.5078 9.09865 22.7361 8.95001 21.9626 8.83614Z" fill="#FFDDA6"/>
<path fill-rule="evenodd" clip-rule="evenodd" d="M18.1893 0.929688C16.9837 0.933578 15.7142 1.55121 15.0836 2.78102H13.3897C10.9417 2.78102 9.48338 5.47177 11.7749 6.89821V10.6411C12.5409 10.4598 13.3049 10.3129 14.0688 10.1973C16.7154 9.80141 19.3468 9.80919 21.9626 10.1973C22.7361 10.3129 23.5076 10.4598 24.2774 10.6411V6.89821C26.5692 5.47177 25.1745 2.78102 22.7265 2.78102H20.9053C20.5486 1.55121 19.416 0.933578 18.2124 0.929688H18.1893Z" fill="#E6E6E6"/>
<path fill-rule="evenodd" clip-rule="evenodd" d="M24.2775 6.89821C26.5692 5.47177 25.1745 2.78076 22.7265 2.78076H21.297C23.4922 2.78076 24.8484 4.7439 23.4479 6.22066C22.9984 6.69354 22.8557 6.44841 22.8557 7.11066L22.85 10.3438C23.3265 10.4307 23.803 10.5293 24.2775 10.6411V6.89821Z" fill="#C2C7CC"/>
<path fill-rule="evenodd" clip-rule="evenodd" d="M24.2775 13.1448C24.1965 13.1293 23.471 12.9905 22.85 12.4963V13.7472C22.85 15.6965 21.6056 17.3588 20.0394 18.4262C18.9377 19.179 17.6763 19.6366 16.5767 19.6983C16.538 19.7001 16.4994 19.7022 16.4589 19.7022C17.0415 19.9126 17.5816 20.0187 18.006 19.9956C19.1055 19.9338 20.3673 19.4744 21.4687 18.7235C23.0352 17.654 24.2775 15.9938 24.2775 14.0442V13.1448Z" fill="#FCC368"/>
<path fill-rule="evenodd" clip-rule="evenodd" d="M22.5973 19.9395C22.0687 19.6884 21.733 19.2367 21.4687 18.7234C20.8204 19.1654 20.1146 19.507 19.422 19.7252C19.7403 20.341 20.0025 20.6227 20.9229 21.059C21.0329 21.1112 21.1525 21.1555 21.2796 21.1882C21.8583 20.8777 22.3213 20.4606 22.5973 19.9395Z" fill="#EDA93B"/>
<path fill-rule="evenodd" clip-rule="evenodd" d="M29.0424 23.6553C28.562 21.6131 26.9628 20.6557 24.9566 20.3024C24.4953 20.2212 24.0152 20.1711 23.5213 20.148C23.1566 20.1363 22.8539 20.0611 22.5971 19.9395C22.3213 20.4606 21.8583 20.8777 21.2796 21.1885C21.4513 21.2346 21.6383 21.2619 21.8469 21.2676C22.1013 21.2811 22.3504 21.2984 22.5971 21.3254C22.8305 21.3506 23.0583 21.3815 23.2821 21.4219C23.8819 21.528 24.4471 21.6883 24.9566 21.9143C26.1467 22.4468 27.032 23.3446 27.3698 24.7767C27.8559 26.8403 28.0411 28.6625 28.0411 30.78H29.2525V27.3056C29.2525 26.9349 29.4203 26.6008 29.6846 26.377L29.0424 23.6553Z" fill="#4A83C9"/>
<path fill-rule="evenodd" clip-rule="evenodd" d="M24.9566 20.3024C24.4953 20.2212 24.0152 20.1711 23.5213 20.148C23.1566 20.1363 22.8539 20.0611 22.5971 19.9395V21.3254C22.8305 21.3506 23.0583 21.3815 23.2821 21.4219C23.8819 21.528 24.4471 21.6883 24.9566 21.9143V20.3024Z" fill="#C2C7CC"/>
<path fill-rule="evenodd" clip-rule="evenodd" d="M33.5735 28.2514C33.5735 27.0623 32.6013 26.0896 31.413 26.0896H30.4678C30.1707 26.0896 29.8968 26.1975 29.6846 26.377C29.4203 26.6009 29.2525 26.935 29.2525 27.3057V31.2146C29.2525 31.8843 29.8003 32.4324 30.4678 32.4324H31.413C32.6013 32.4324 33.5735 31.4597 33.5735 30.2706V28.2514Z" fill="#FFDDA6"/>
<path fill-rule="evenodd" clip-rule="evenodd" d="M32.5108 10.3342H30.3155C29.4955 10.3342 28.8263 11.0061 28.8263 11.8245V16.3258C28.8263 17.1463 29.4955 17.8161 30.3155 17.8161H32.5108C32.9717 17.8161 33.3844 17.6039 33.6586 17.2719C33.8708 17.0132 34 16.6851 34 16.3261V11.8245C34 11.4673 33.8708 11.1373 33.6586 10.8805C33.3847 10.5485 32.9717 10.3342 32.5108 10.3342Z" fill="#E6E6E6"/>
<path fill-rule="evenodd" clip-rule="evenodd" d="M25.9093 25.4544C25.8227 24.9371 25.4813 24.499 24.9566 24.499H23.583L24.7075 30.7801H26.8297L25.9093 25.4544Z" fill="#C2C7CC"/>
<path fill-rule="evenodd" clip-rule="evenodd" d="M33.5735 28.2514C33.5735 27.0623 32.6013 26.0896 31.413 26.0896H30.4678C30.3425 26.0896 30.2211 26.1088 30.1051 26.1454C31.0602 26.3674 31.7777 27.2302 31.7777 28.2514V30.2706C31.7777 31.2919 31.0602 32.1528 30.1051 32.3767C30.2211 32.4114 30.3425 32.4327 30.4678 32.4327H31.413C32.6013 32.4327 33.5735 31.4597 33.5735 30.2706V28.2514Z" fill="#FCC368"/>
<path fill-rule="evenodd" clip-rule="evenodd" d="M19.1943 24.4989C19.1151 23.8987 18.5963 23.4294 17.9733 23.4294H15.9014C15.1741 23.4294 15.0506 24.1148 14.8945 24.8193C14.8153 25.1705 16.4031 25.5664 16.2776 25.8945H17.9733C18.6524 25.8945 19.2059 25.3404 19.2059 24.6629C19.2059 24.6071 19.202 24.5529 19.1943 24.4989Z" fill="#FCC368"/>
<path fill-rule="evenodd" clip-rule="evenodd" d="M3.30267 23.4294H1.23085C0.553558 23.4294 0 23.9853 0 24.6629C0 25.3404 0.553558 25.8945 1.23085 25.8945H2.92265L4.52937 24.3695L3.30267 23.4294Z" fill="#FCC368"/>
<path fill-rule="evenodd" clip-rule="evenodd" d="M13.4688 23.4294H3.30267C2.57532 23.4294 2.46351 24.1669 2.61967 24.8733C2.69879 25.2286 2.80099 25.5682 2.92265 25.8945C3.64015 27.8037 5.07541 29.2128 6.88861 29.9251L9.23643 31.392L12.3713 29.9251C14.1632 29.1858 15.5772 27.7186 16.2776 25.8945C16.4029 25.5664 16.5071 25.2247 16.5842 24.8733C16.7406 24.1669 16.6306 23.4294 15.9014 23.4294H13.4688Z" fill="#F78411"/>
<path fill-rule="evenodd" clip-rule="evenodd" d="M12.3713 29.925H4.40979C3.85234 29.925 3.39891 30.3806 3.39891 30.9364V31.9925C3.39891 32.5484 3.85234 33.0039 4.40979 33.0039H15.1798C15.7354 33.0039 16.1907 32.5484 16.1907 31.9925V30.9364C16.1907 30.8843 16.1868 30.8304 16.1772 30.78C16.102 30.2975 15.6815 29.925 15.1798 29.925H12.3713Z" fill="#808080"/>
<path fill-rule="evenodd" clip-rule="evenodd" d="M15.9014 23.4294H13.7928C14.5201 23.4294 14.6319 24.1669 14.4758 24.8733C14.3967 25.2247 14.2945 25.5664 14.1671 25.8945C14.034 26.2439 13.874 26.5778 13.6906 26.8984C13.3609 27.4717 12.9557 27.9946 12.487 28.454C12.4561 28.4831 12.4252 28.5139 12.3944 28.543C11.777 29.1259 11.0556 29.5969 10.2608 29.9251H12.3713C12.7492 29.7686 13.11 29.5814 13.4514 29.3632C14.7266 28.5505 15.7238 27.3344 16.2776 25.8945C16.4029 25.5664 16.5071 25.2247 16.5842 24.8733C16.6132 24.748 16.6324 24.6224 16.6402 24.4989C16.6828 23.9296 16.5014 23.4294 15.9014 23.4294Z" fill="#F74311"/>
<path fill-rule="evenodd" clip-rule="evenodd" d="M16.1772 30.78C16.102 30.2975 15.6815 29.925 15.1798 29.925H13.0693C13.5728 29.925 13.9915 30.2975 14.0688 30.78C14.0763 30.8304 14.0802 30.8843 14.0802 30.9364V31.9925C14.0802 32.5484 13.625 33.0039 13.0693 33.0039H15.1798C15.7354 33.0039 16.1907 32.5484 16.1907 31.9925V30.9364C16.1907 30.8843 16.187 30.8304 16.1772 30.78Z" fill="#666666"/>
<path fill-rule="evenodd" clip-rule="evenodd" d="M33.6586 10.8805C33.3847 10.5485 32.9717 10.3342 32.5108 10.3342H30.4908C31.309 10.3342 31.9803 11.0061 31.9803 11.8245V16.3258C31.9803 17.1463 31.309 17.8161 30.4908 17.8161H32.5108C32.9717 17.8161 33.3844 17.6039 33.6586 17.2719C33.8708 17.0132 34 16.6851 34 16.3261V11.8245C34 11.4673 33.8708 11.1373 33.6586 10.8805Z" fill="#C2C7CC"/>
<path fill-rule="evenodd" clip-rule="evenodd" d="M24.2775 10.6411C23.5078 10.4598 22.7361 10.313 21.9626 10.1973C21.6905 12.6486 24.1231 13.1176 24.2775 13.1448V10.6411Z" fill="#808080"/>
<path fill-rule="evenodd" clip-rule="evenodd" d="M14.0688 10.1973C13.3049 10.313 12.5409 10.4598 11.7752 10.6411V13.1409C12.1088 13.0753 14.3274 12.5386 14.0688 10.1973Z" fill="#808080"/>
<path fill-rule="evenodd" clip-rule="evenodd" d="M24.2775 10.641C23.803 10.5292 23.3265 10.4306 22.85 10.3438V12.496C23.471 12.9901 24.1965 13.1292 24.2775 13.1447V10.641Z" fill="#666666"/>
<path d="M14.8939 13.466C14.7635 13.466 14.633 13.4167 14.5323 13.3184C14.3279 13.1189 14.3251 12.7907 14.5246 12.5866C14.8937 12.2089 15.5339 12.1656 15.7922 12.1646H15.8026C16.0714 12.1646 16.7103 12.2071 17.0843 12.5835C17.2856 12.7861 17.2846 13.1134 17.082 13.3147C16.8794 13.5158 16.552 13.5147 16.3507 13.3124C16.1844 13.1627 15.4314 13.1612 15.2628 13.3106C15.1616 13.4141 15.028 13.466 14.8939 13.466Z" fill="#666666"/>
<path d="M19.0819 13.466C18.9515 13.466 18.821 13.4167 18.7201 13.3184C18.5159 13.1186 18.5128 12.7907 18.7126 12.5866C19.0819 12.2089 19.7221 12.1656 19.9802 12.1646H19.9906C20.2591 12.1646 20.898 12.2071 21.2723 12.5835C21.4736 12.7861 21.4726 13.1134 21.27 13.3147C21.0674 13.5158 20.74 13.5147 20.5385 13.3124C20.3722 13.1627 19.6194 13.1612 19.4508 13.3106C19.3496 13.4141 19.2158 13.466 19.0819 13.466Z" fill="#666666"/>
<path d="M17.9502 7.12566C17.6646 7.12566 17.4329 6.89401 17.4329 6.60867V4.23439C17.4329 3.94879 17.6646 3.71741 17.9502 3.71741C18.2358 3.71741 18.4672 3.94879 18.4672 4.23439V6.60867C18.4672 6.89401 18.2358 7.12566 17.9502 7.12566Z" fill="#C2C7CC"/>
<path d="M14.4392 8.19707C14.1536 8.19707 13.922 7.96542 13.922 7.68008V5.30762C13.922 5.02228 14.1536 4.79089 14.4392 4.79089C14.7248 4.79089 14.9562 5.02228 14.9562 5.30762V7.68008C14.9562 7.96542 14.7248 8.19707 14.4392 8.19707Z" fill="#C2C7CC"/>
<path d="M21.4609 8.19707C21.1753 8.19707 20.9439 7.96542 20.9439 7.68008V5.30762C20.9439 5.02228 21.1753 4.79089 21.4609 4.79089C21.7465 4.79089 21.9781 5.02228 21.9781 5.30762V7.68008C21.9781 7.96542 21.7465 8.19707 21.4609 8.19707Z" fill="#C2C7CC"/>
</g>
<defs>
<clipPath id="clip0_216_2002">
<rect width="34" height="34" fill="white"/>
</clipPath>
</defs>
</svg>
