<svg width="12" height="12" viewBox="0 0 12 12" fill="none" xmlns="http://www.w3.org/2000/svg">
<path d="M9.36006 1.01419C9.0358 0.905383 8.69475 0.857203 8.35316 0.857203C7.60068 0.85179 6.8704 1.10081 6.26896 1.56042C6.22024 1.52306 6.16069 1.49004 6.10656 1.4581C6.05242 1.42508 5.95498 1.34442 5.87378 1.30111L5.66807 1.20908C5.5598 1.14953 5.44666 1.10622 5.32702 1.06779C5.31619 1.0575 5.29995 1.04613 5.2783 1.03585H5.24636C4.92642 0.927037 4.5962 0.867489 4.25515 0.857203H4.1956C4.04402 0.857203 3.89298 0.867489 3.74087 0.889684H3.6759C3.5135 0.910797 3.35164 0.948691 3.19465 1.00283C1.17487 1.66381 0.45488 3.85628 1.0666 5.77265C1.41307 6.75195 1.9712 7.6403 2.6966 8.37058C3.75169 9.38832 4.90531 10.287 6.14445 11.0557L6.2852 11.1428L6.42054 11.0611C7.65536 10.287 8.80248 9.38832 9.84782 8.376C10.5781 7.64572 11.1357 6.75195 11.4767 5.77265C12.0782 3.85628 11.3582 1.66381 9.36006 1.01419Z" fill="#EC5655"/>
</svg>
