<svg width="26" height="26" viewBox="0 0 26 26" fill="none" xmlns="http://www.w3.org/2000/svg">
<g clip-path="url(#clip0_216_2176)">
<path d="M25.4293 8.62559L23.4849 6.69683C22.9089 7.27274 22.2092 7.5609 21.3864 7.5609C20.5634 7.5609 19.8641 7.27274 19.2882 6.69683C18.7119 6.12071 18.4241 5.42131 18.4241 4.59826C18.4241 3.77516 18.7122 3.07576 19.2882 2.49958L17.3592 0.570824C16.9782 0.190347 16.5128 0 15.9628 0C15.4124 0 14.947 0.190401 14.5664 0.570824L0.57104 14.5507C0.190293 14.9315 0 15.3972 0 15.947C0 16.4973 0.190293 16.9626 0.57104 17.3434L2.4998 19.2878C3.07592 18.7119 3.77548 18.4237 4.59842 18.4237C5.42131 18.4237 6.12071 18.7115 6.69678 19.2878C7.27274 19.8638 7.5608 20.5633 7.5608 21.3863C7.5608 22.2093 7.2729 22.9084 6.69678 23.4847L8.6411 25.429C9.0218 25.8096 9.48734 25.9999 10.0377 25.9999C10.5881 25.9999 11.0536 25.8096 11.434 25.429L25.4293 11.4183C25.8099 11.0377 26.0001 10.5723 26.0001 10.022C26 9.47161 25.8099 9.00629 25.4293 8.62559ZM21.2475 11.7116L11.7117 21.2472C11.5267 21.4327 11.2953 21.5252 11.0174 21.5252C10.7397 21.5252 10.5083 21.4327 10.3231 21.2472L4.73721 15.6618C4.54173 15.4661 4.44407 15.2348 4.44407 14.9675C4.44407 14.7 4.54173 14.4684 4.73721 14.2728L14.273 4.73705C14.4584 4.55184 14.6899 4.45915 14.9677 4.45915C15.2452 4.45915 15.4767 4.55184 15.662 4.73705L21.2476 10.3228C21.4433 10.5184 21.541 10.7498 21.541 11.0172C21.5409 11.2846 21.4432 11.516 21.2475 11.7116Z" fill="#C83E96"/>
<path d="M14.9681 6.1416L19.8442 11.0174L11.0182 19.8434L6.14233 14.9676L14.9681 6.1416Z" fill="#C83E96"/>
</g>
<defs>
<clipPath id="clip0_216_2176">
<rect width="26" height="26" fill="white"/>
</clipPath>
</defs>
</svg>
